<?xml version="1.0" encoding="UTF-8" standalone="no"?>
<!DOCTYPE svg PUBLIC "-//W3C//DTD SVG 1.1//EN" "http://www.w3.org/Graphics/SVG/1.1/DTD/svg11.dtd">
<svg width="100%" height="100%" viewBox="0 0 170 174" version="1.1" xmlns="http://www.w3.org/2000/svg" xmlns:xlink="http://www.w3.org/1999/xlink" xml:space="preserve" xmlns:serif="http://www.serif.com/" style="fill-rule:evenodd;clip-rule:evenodd;stroke-linejoin:round;stroke-miterlimit:2;">
    <g transform="matrix(1,0,0,1,-45918.6,-18180.1)">
        <g transform="matrix(0.920556,0,0,3.27813,22273.7,15554.2)">
            <g transform="matrix(0.0819828,0,0,0.0212837,25631.5,787.303)">
                <g transform="matrix(0.396825,0,0,0.429239,465.825,-1420.04)">
                    <path d="M3229,4829C2936,4870 2700,5068 2606,5352C2572,5455 2568,5645 2597,5753C2709,6165 3128,6401 3538,6282C3720,6229 3896,6081 3984,5907C4044,5787 4067,5676 4060,5538C4054,5411 4037,5343 3985,5236C3917,5099 3787,4969 3645,4898C3532,4841 3353,4812 3229,4829ZM3441,5034C3629,5078 3787,5224 3844,5406C3874,5500 3874,5639 3844,5733C3790,5905 3660,6033 3476,6095C3390,6124 3240,6122 3147,6090C2968,6029 2831,5879 2788,5698C2743,5507 2797,5317 2936,5179C3070,5046 3261,4991 3441,5034Z" style="fill-rule:nonzero;stroke:black;stroke-width:24.57px;"/>
                </g>
                <g transform="matrix(0.396825,0,0,0.429239,465.825,685.378)">
                    <path d="M1628,642C1492,674 1413,710 1306,791C1186,883 1104,1003 1048,1169C1017,1263 1014,1456 1043,1561C1062,1632 1122,1758 1157,1803C1177,1828 1177,1830 1159,1840C1004,1929 817,2097 724,2231C591,2423 519,2626 499,2869C475,3146 627,3355 895,3414L923,3421L926,3885C929,4342 930,4351 954,4410C1005,4537 1111,4641 1233,4686L1307,4713L2263,4707L2321,4679C2352,4664 2400,4635 2426,4614L2473,4576L2478,4946C2485,5350 2485,5351 2555,5472C2586,5525 2675,5608 2729,5636C2829,5686 2855,5688 3318,5689C3788,5689 3806,5687 3917,5631C3991,5593 4072,5505 4115,5415L4153,5337L4159,4567L4227,4618C4272,4652 4320,4677 4367,4691C4435,4712 4458,4713 4904,4710L5371,4707L5439,4674C5584,4606 5690,4465 5712,4313C5718,4275 5722,4059 5722,3833L5722,3421L5767,3410C5792,3404 5826,3394 5843,3388C5941,3356 6051,3251 6103,3140C6131,3080 6137,3053 6141,2970C6159,2558 5943,2144 5586,1906C5525,1866 5474,1831 5472,1829C5470,1827 5483,1804 5502,1778C5581,1662 5621,1528 5620,1378C5620,1262 5609,1203 5568,1100C5500,930 5367,786 5199,701C5131,667 4963,627 4886,627C4741,627 4589,674 4468,755C4156,963 4046,1371 4212,1702C4230,1738 4254,1780 4265,1796C4276,1811 4283,1829 4279,1834C4276,1839 4248,1858 4218,1875C4187,1892 4125,1936 4080,1971C4035,2007 3998,2035 3996,2033C3995,2031 3981,2007 3965,1979C3791,1675 3419,1532 3088,1642C2927,1695 2766,1824 2683,1967C2661,2004 2640,2034 2636,2034C2632,2034 2615,2020 2599,2003C2566,1969 2441,1880 2387,1852L2353,1835L2400,1759C2426,1717 2460,1645 2475,1599C2500,1525 2503,1499 2503,1378C2503,1226 2490,1167 2429,1042C2340,861 2193,735 1995,669C1878,630 1726,619 1628,642ZM1864,838C2002,863 2143,957 2221,1075C2383,1319 2315,1669 2077,1827C1929,1925 1742,1950 1586,1893C1357,1810 1218,1612 1218,1372C1218,1082 1461,835 1754,828C1781,828 1830,832 1864,838ZM4980,838C5185,876 5355,1036 5407,1242C5443,1379 5429,1498 5364,1628C5324,1707 5213,1822 5140,1858C4951,1953 4749,1945 4581,1836C4406,1723 4306,1507 4335,1305C4380,993 4673,781 4980,838ZM3466,1820C3684,1885 3831,2056 3863,2281C3898,2526 3750,2772 3511,2865C3465,2882 3421,2890 3339,2893C3242,2897 3219,2894 3152,2871C3052,2837 2984,2792 2913,2714C2723,2504 2725,2188 2916,1981C3027,1862 3156,1804 3313,1804C3371,1804 3431,1810 3466,1820ZM1363,2002C1555,2137 1856,2157 2073,2051C2114,2031 2160,2006 2176,1996C2203,1978 2206,1979 2244,1997C2316,2031 2423,2108 2504,2183L2583,2257L2577,2322C2565,2447 2611,2618 2690,2739C2729,2800 2731,2807 2714,2816C2561,2904 2404,3042 2301,3179C2078,3476 1992,3913 2111,4146C2145,4212 2230,4295 2303,4334C2342,4354 2373,4375 2373,4381C2373,4386 2350,4413 2322,4440C2234,4524 2229,4525 1746,4521C1332,4518 1328,4518 1281,4493C1215,4459 1177,4421 1149,4360L1124,4308L1124,3807C1124,3441 1120,3299 1111,3278C1093,3239 1050,3221 974,3221C865,3220 773,3165 721,3069C701,3033 698,3011 699,2911C702,2547 921,2193 1254,2015C1326,1976 1327,1976 1363,2002ZM4513,2023C4738,2156 5034,2153 5254,2017L5317,1978L5392,2017C5433,2038 5507,2088 5555,2127C5775,2305 5913,2562 5942,2853C5955,2971 5950,3006 5916,3075C5869,3169 5798,3210 5666,3221C5581,3228 5569,3232 5547,3257L5523,3285L5523,3783C5523,4214 5521,4287 5506,4331C5482,4403 5436,4455 5368,4488L5308,4518L4447,4518L4387,4488C4349,4470 4316,4443 4295,4416L4263,4373L4320,4344C4486,4260 4589,4096 4589,3914C4589,3612 4458,3288 4245,3062C4172,2985 4039,2880 3958,2834L3910,2807L3955,2733C4023,2624 4055,2516 4061,2376L4066,2260L4125,2199C4158,2165 4214,2116 4250,2090C4316,2042 4419,1983 4434,1982C4439,1982 4475,2001 4513,2023ZM3050,3042C3260,3129 3512,3107 3706,2985C3749,2958 3755,2957 3790,2969C3900,3008 4098,3174 4193,3308C4258,3398 4331,3554 4359,3662C4391,3781 4394,3983 4365,4041C4319,4133 4232,4187 4117,4194C4032,4200 3996,4213 3981,4243C3973,4258 3968,4427 3966,4775C3964,5231 3961,5288 3945,5323C3917,5383 3864,5437 3806,5464C3754,5489 3752,5489 3320,5489C2853,5489 2854,5489 2779,5432C2760,5417 2730,5380 2713,5350L2683,5295L2678,4771L2672,4248L2643,4223C2619,4202 2602,4197 2554,4197C2399,4197 2290,4116 2259,3977C2252,3946 2251,3893 2258,3823C2291,3471 2487,3173 2801,2994L2879,2950L2927,2980C2953,2997 3008,3024 3050,3042Z" style="fill-rule:nonzero;stroke:black;stroke-width:24.57px;"/>
                </g>
            </g>
        </g>
    </g>
</svg>
