<?xml version="1.0" encoding="UTF-8" standalone="no"?>
<!DOCTYPE svg PUBLIC "-//W3C//DTD SVG 1.1//EN" "http://www.w3.org/Graphics/SVG/1.1/DTD/svg11.dtd">
<svg width="100%" height="100%" viewBox="0 0 128 196" version="1.1" xmlns="http://www.w3.org/2000/svg" xmlns:xlink="http://www.w3.org/1999/xlink" xml:space="preserve" xmlns:serif="http://www.serif.com/" style="fill-rule:evenodd;clip-rule:evenodd;stroke-linejoin:round;stroke-miterlimit:2;">
    <g transform="matrix(1,0,0,1,-44381.7,-18152.3)">
        <g transform="matrix(0.920556,0,0,3.27813,22273.7,15554.2)">
            <g transform="matrix(0.107472,0,0,0.0279011,23893.4,769.683)">
                <g transform="matrix(0.396825,0,0,0.429239,597.292,404.672)">
                    <path d="M2840,972C2350,1027 1910,1373 1753,1828C1678,2044 1670,2133 1669,2698L1669,3140L1606,3160C1524,3186 1441,3260 1400,3343L1370,3403L1367,4500C1364,5639 1365,5678 1407,5760C1432,5808 1506,5878 1561,5905C1584,5917 1634,5932 1671,5938C1764,5953 4233,5953 4326,5938C4446,5918 4545,5838 4587,5724L4610,5664L4604,3392L4575,3337C4525,3241 4432,3168 4337,3149L4307,3143L4302,2638C4296,2087 4293,2053 4232,1865C4126,1541 3892,1269 3584,1111C3470,1053 3315,999 3211,983C3109,967 2933,962 2840,972ZM3271,1165C3458,1214 3673,1337 3806,1472C3920,1588 4030,1771 4079,1927C4130,2092 4137,2176 4137,2676L4137,3135L3969,3135L3969,2660C3969,2140 3963,2081 3901,1917C3797,1646 3556,1426 3260,1333C3172,1305 3154,1303 2987,1303C2820,1303 2803,1305 2715,1333C2530,1391 2393,1476 2270,1606C2158,1727 2091,1843 2040,2008L2012,2101L2004,3135L1838,3135L1838,2651C1837,2207 1839,2158 1859,2063C1933,1699 2141,1423 2467,1257C2581,1199 2639,1178 2770,1150C2903,1121 3125,1127 3271,1165ZM3218,1497C3480,1580 3674,1772 3762,2035L3795,2132L3799,2634L3802,3135L2172,3135L2176,2628C2180,2134 2181,2120 2204,2048C2302,1749 2533,1540 2836,1476C2917,1459 3135,1471 3218,1497ZM4352,3324C4381,3338 4404,3360 4421,3390L4447,3434L4447,5639L4421,5684C4404,5713 4381,5736 4352,5749C4310,5770 4288,5770 2987,5770L1664,5770L1623,5747C1601,5734 1572,5710 1560,5694L1538,5664L1538,3413L1563,3379C1576,3360 1605,3335 1626,3324C1663,3304 1699,3304 2987,3303C4288,3303 4310,3303 4352,3324Z" style="fill-rule:nonzero;"/>
                </g>
                <g transform="matrix(0.396825,0,0,0.429239,597.292,1353.72)">
                    <path d="M2908,1816C2784,1854 2696,1974 2696,2108C2696,2163 2702,2187 2734,2252L2772,2329L2772,2496C2772,2594 2777,2679 2784,2700C2842,2873 3070,2900 3166,2746C3197,2695 3197,2694 3201,2511L3205,2327L3235,2290C3387,2100 3245,1804 3003,1807C2965,1807 2923,1811 2908,1816ZM3073,1990C3103,2010 3129,2065 3129,2108C3129,2147 3096,2199 3056,2222L3024,2241L3024,2447C3024,2659 3021,2677 2980,2677C2946,2677 2940,2641 2940,2438C2940,2250 2939,2239 2918,2220C2864,2171 2851,2089 2888,2029C2926,1966 3010,1949 3073,1990Z" style="fill-rule:nonzero;"/>
                </g>
            </g>
        </g>
    </g>
</svg>
