<?xml version="1.0" encoding="UTF-8" standalone="no"?>
<!DOCTYPE svg PUBLIC "-//W3C//DTD SVG 1.1//EN" "http://www.w3.org/Graphics/SVG/1.1/DTD/svg11.dtd">
<svg width="100%" height="100%" viewBox="0 0 147 175" version="1.1" xmlns="http://www.w3.org/2000/svg" xmlns:xlink="http://www.w3.org/1999/xlink" xml:space="preserve" xmlns:serif="http://www.serif.com/" style="fill-rule:evenodd;clip-rule:evenodd;stroke-linejoin:round;stroke-miterlimit:2;">
    <g transform="matrix(1,0,0,1,-45930.1,-17889.5)">
        <g transform="matrix(0.920556,0,0,3.27813,22273.7,15554.2)">
            <g transform="matrix(0.112949,0,0,0.0293228,25576.3,683.604)">
                <g transform="matrix(0.396825,0,0,0.429239,764.23,-559.381)">
                    <path d="M3612,3622L3586,3635L3583,3937L3580,4238L3288,4238C2971,4238 2958,4241 2958,4295C2958,4358 2965,4359 3287,4362L3581,4365L3581,4651C3581,4893 3583,4941 3597,4961C3616,4987 3651,4991 3681,4969C3700,4955 3701,4937 3704,4659L3707,4364L3979,4364C4244,4364 4299,4359 4318,4330C4332,4308 4327,4274 4307,4256C4290,4241 4253,4238 3998,4238L3707,4238L3704,3944L3701,3649L3676,3629C3647,3605 3646,3605 3612,3622Z" style="fill-rule:nonzero;stroke:black;stroke-width:41.61px;"/>
                </g>
                <g transform="matrix(0.396825,0,0,0.429239,764.23,572.092)">
                    <path d="M2231,2029C1890,2100 1634,2314 1528,2617C1467,2793 1464,3010 1521,3188C1608,3459 1818,3675 2082,3767C2592,3942 3147,3626 3256,3099C3355,2619 3041,2136 2566,2038C2496,2024 2285,2018 2231,2029ZM2567,2165C3052,2295 3290,2821 3066,3267C2872,3654 2401,3803 2015,3601C1825,3502 1684,3328 1626,3119C1595,3007 1595,2840 1626,2723C1705,2427 1949,2203 2252,2149C2323,2136 2490,2144 2567,2165Z" style="fill-rule:nonzero;stroke:black;stroke-width:41.61px;"/>
                </g>
                <g transform="matrix(0.396825,0,0,0.429239,764.23,1935.78)">
                    <path d="M1717,806C1443,840 1192,977 1029,1182C920,1320 861,1447 825,1620C806,1711 803,1933 819,1965C830,1985 858,1985 2372,1985C3852,1985 3914,1984 3931,1966C3944,1951 3948,1924 3948,1839C3948,1391 3669,992 3260,856C3098,801 3050,798 2373,800C2029,801 1734,803 1717,806ZM3155,950C3240,975 3356,1029 3429,1078C3668,1236 3821,1514 3822,1788L3822,1869L921,1869L929,1773C957,1414 1172,1115 1497,983C1637,926 1649,926 2399,928C3029,931 3098,933 3155,950Z" style="fill-rule:nonzero;stroke:black;stroke-width:41.61px;"/>
                </g>
            </g>
        </g>
    </g>
</svg>
