<?xml version="1.0" encoding="UTF-8" standalone="no"?>
<!DOCTYPE svg PUBLIC "-//W3C//DTD SVG 1.1//EN" "http://www.w3.org/Graphics/SVG/1.1/DTD/svg11.dtd">
<svg width="100%" height="100%" viewBox="0 0 156 173" version="1.1" xmlns="http://www.w3.org/2000/svg" xmlns:xlink="http://www.w3.org/1999/xlink" xml:space="preserve" xmlns:serif="http://www.serif.com/" style="fill-rule:evenodd;clip-rule:evenodd;stroke-linejoin:round;stroke-miterlimit:2;">
    <g transform="matrix(1,0,0,1,-45929.8,-17659.6)">
        <g transform="matrix(0.920556,0,0,3.27813,22273.7,15554.2)">
            <g transform="matrix(0.033558,0,0,0.00942368,25661.1,637.058)">
                <path d="M4022,557C3686,590 3481,629 3262,702C2967,801 2744,954 2662,1116C2615,1208 2590,1440 2600,1673C2604,1775 2606,1909 2604,1973C2598,2127 2599,2398 2604,2540C2607,2603 2605,2712 2600,2782L2590,2910L2494,2921C2136,2965 1829,3119 1559,3390C1317,3631 1187,3870 1110,4212C1091,4299 1088,4345 1088,4529C1088,4711 1092,4761 1111,4848C1183,5176 1325,5435 1559,5669C1858,5968 2219,6128 2631,6144C2940,6155 3220,6091 3482,5946C3727,5810 3960,5582 4102,5337L4149,5257L4440,5251C4808,5243 4998,5219 5287,5144C5584,5066 5796,4961 5936,4820C6026,4730 6064,4652 6087,4503C6108,4370 6111,4050 6092,3944C6084,3896 6084,3861 6092,3813C6099,3777 6104,3660 6104,3553C6104,3446 6099,3329 6092,3293C6084,3245 6084,3210 6092,3162C6107,3080 6108,2728 6093,2647C6085,2601 6086,2555 6097,2463C6113,2335 6110,2112 6091,1996C6084,1956 6084,1915 6092,1870C6111,1767 6107,1446 6086,1306C6065,1163 6032,1084 5960,1005C5755,778 5294,612 4725,561C4616,551 4111,548 4022,557ZM4851,765C5541,863 5976,1113 5875,1353C5853,1406 5772,1488 5692,1539C5125,1897 3798,1929 3123,1601C2919,1501 2824,1406 2816,1294C2812,1243 2816,1226 2839,1187C2884,1110 2975,1038 3113,970C3340,857 3618,787 3977,750C4126,735 4710,744 4851,765ZM5917,1706C5903,1904 5885,1993 5848,2046C5712,2245 5268,2407 4709,2461C4548,2477 4158,2477 3995,2462C3489,2412 3097,2285 2906,2106C2877,2079 2847,2043 2838,2026C2817,1985 2795,1857 2786,1716C2778,1594 2773,1597 2858,1664C2976,1757 3219,1859 3465,1919C4067,2066 4861,2047 5406,1872C5574,1818 5772,1721 5854,1654C5888,1625 5919,1601 5921,1601C5923,1600 5921,1648 5917,1706ZM2948,2370C3418,2641 4287,2739 5040,2607C5375,2548 5681,2434 5854,2304L5925,2250L5918,2348C5908,2483 5885,2632 5869,2662C5785,2821 5479,2974 5093,3053C4699,3132 4203,3145 3791,3085C3345,3020 2972,2866 2854,2697C2819,2647 2796,2535 2786,2362L2779,2247L2831,2290C2859,2313 2912,2349 2948,2370ZM5918,3000C5908,3133 5885,3283 5869,3312C5847,3354 5771,3429 5708,3472C5441,3653 4894,3774 4342,3773C4141,3773 4133,3771 4097,3707C4041,3609 3936,3476 3830,3370L3725,3266L3766,3273C4016,3313 4578,3320 4835,3287C5291,3228 5666,3102 5870,2940C5895,2919 5919,2902 5921,2902C5923,2902 5922,2946 5918,3000ZM2942,3118C3129,3149 3339,3233 3503,3344C3821,3559 4044,3903 4111,4285C4133,4409 4133,4644 4111,4771C4060,5070 3912,5344 3687,5561C3428,5810 3118,5941 2751,5954C2494,5963 2302,5923 2073,5811C1781,5669 1560,5447 1418,5156C1307,4929 1265,4732 1274,4477C1281,4268 1318,4111 1404,3921C1526,3652 1787,3385 2063,3246C2324,3115 2643,3068 2942,3118ZM5917,3650C5904,3828 5884,3936 5856,3980C5713,4202 5206,4374 4578,4414C4483,4420 4385,4424 4361,4424L4318,4424L4311,4354C4301,4263 4268,4105 4241,4029C4230,3996 4221,3968 4221,3966C4221,3964 4281,3962 4355,3962C4926,3962 5473,3840 5791,3642C5832,3617 5874,3587 5885,3575C5920,3536 5925,3548 5917,3650ZM5918,4291C5898,4580 5874,4643 5751,4738C5566,4880 5258,4982 4841,5039C4733,5054 4231,5074 4232,5064C4232,5062 4241,5029 4253,4991C4278,4908 4316,4708 4316,4654L4316,4613L4365,4613C4487,4613 4785,4590 4919,4571C5324,4512 5656,4397 5846,4250C5885,4220 5919,4195 5921,4195C5923,4194 5922,4237 5918,4291Z" style="fill-rule:nonzero;"/>
            </g>
        </g>
    </g>
</svg>
