<?xml version="1.0" encoding="UTF-8" standalone="no"?>
<!DOCTYPE svg PUBLIC "-//W3C//DTD SVG 1.1//EN" "http://www.w3.org/Graphics/SVG/1.1/DTD/svg11.dtd">
<svg width="100%" height="100%" viewBox="0 0 164 164" version="1.1" xmlns="http://www.w3.org/2000/svg" xmlns:xlink="http://www.w3.org/1999/xlink" xml:space="preserve" xmlns:serif="http://www.serif.com/" style="fill-rule:evenodd;clip-rule:evenodd;stroke-linejoin:round;stroke-miterlimit:2;">
    <g transform="matrix(1,0,0,1,-44363.6,-17927.1)">
        <g transform="matrix(0.920556,0,0,3.27813,22273.7,15554.2)">
            <g transform="matrix(0.0711805,0,0,0.0184793,23958.1,713.885)">
                <g transform="matrix(0.396825,0,0,0.429239,373.151,260.836)">
                    <path d="M2599,698C2162,745 1731,922 1365,1206C1255,1291 1054,1492 963,1608C681,1970 501,2412 456,2855C408,3328 484,3759 692,4184C820,4445 957,4634 1167,4842C1364,5037 1551,5169 1800,5291C2155,5465 2487,5543 2872,5543C3257,5544 3603,5461 3957,5285L4132,5198L4977,6042C5442,6507 5835,6891 5851,6897C5871,6905 5889,6905 5909,6897C5952,6881 6644,6186 6658,6145C6666,6121 6665,6105 6657,6087C6650,6074 6264,5683 5800,5218L4956,4373L5033,4220C5220,3851 5303,3510 5302,3113C5302,2571 5127,2062 4786,1614C4702,1504 4500,1301 4379,1205C4122,1003 3825,855 3491,762C3224,688 2904,665 2599,698ZM3157,898C3658,965 4096,1181 4451,1534C4693,1774 4866,2053 4988,2399C5122,2777 5141,3253 5039,3659C4874,4318 4403,4878 3785,5151C3331,5353 2838,5399 2354,5285C1960,5193 1580,4981 1293,4692C995,4392 809,4061 704,3643C554,3043 674,2371 1022,1858C1162,1651 1410,1403 1617,1263C1890,1078 2249,942 2583,898C2737,878 3006,878 3157,898ZM5638,5328L6431,6121L6164,6389C6017,6536 5889,6657 5880,6657C5871,6657 5511,6303 5079,5871L4294,5086L4370,5029C4470,4952 4716,4707 4788,4612C4819,4570 4845,4535 4845,4535C4846,4535 5202,4892 5638,5328Z" style="fill-rule:nonzero;stroke:rgb(7,28,59);stroke-width:66.03px;"/>
                </g>
                <g transform="matrix(0.396825,0,0,0.429239,373.151,-325.505)">
                    <path d="M2793,2633C2240,2659 1718,2935 1393,3374C1148,3705 1026,4077 1027,4489C1029,5050 1285,5576 1727,5928C1981,6130 2298,6265 2625,6311C2739,6327 3004,6327 3119,6311C3359,6277 3622,6185 3825,6063C4042,5932 4272,5711 4422,5487C4480,5400 4591,5168 4624,5067C4693,4851 4716,4701 4716,4479C4716,4172 4656,3916 4521,3650C4424,3458 4335,3335 4181,3178C3827,2817 3298,2609 2793,2633ZM3019,2836C3237,2857 3393,2901 3596,2999C3925,3158 4176,3405 4343,3735C4483,4011 4542,4311 4516,4607C4494,4851 4453,4998 4347,5214C4185,5540 3943,5784 3616,5950C3143,6190 2601,6190 2128,5950C1929,5850 1782,5737 1638,5574C1493,5410 1376,5208 1304,4993C1193,4665 1195,4285 1308,3955C1478,3460 1854,3085 2349,2915C2568,2839 2785,2814 3019,2836Z" style="fill-rule:nonzero;stroke:rgb(7,28,59);stroke-width:66.03px;"/>
                </g>
                <g transform="matrix(0.396825,0,0,0.429239,373.151,-898.539)">
                    <path d="M2851,4357C2796,4369 2762,4436 2782,4488C2799,4535 2831,4547 2972,4559C3257,4583 3507,4688 3703,4866C3965,5104 4106,5391 4132,5745C4140,5853 4153,5884 4199,5903C4236,5918 4275,5908 4306,5876C4327,5853 4329,5841 4327,5759C4313,5121 3845,4548 3218,4398C3155,4383 3067,4368 3024,4365C2981,4361 2929,4357 2909,4355C2888,4353 2862,4354 2851,4357Z" style="fill-rule:nonzero;stroke:rgb(7,28,59);stroke-width:66.03px;"/>
                </g>
            </g>
        </g>
    </g>
</svg>
