<?xml version="1.0" encoding="UTF-8" standalone="no"?>
<!DOCTYPE svg PUBLIC "-//W3C//DTD SVG 1.1//EN" "http://www.w3.org/Graphics/SVG/1.1/DTD/svg11.dtd">
<svg width="100%" height="100%" viewBox="0 0 154 135" version="1.1" xmlns="http://www.w3.org/2000/svg" xmlns:xlink="http://www.w3.org/1999/xlink" xml:space="preserve" xmlns:serif="http://www.serif.com/" style="fill-rule:evenodd;clip-rule:evenodd;stroke-linejoin:round;stroke-miterlimit:2;">
    <g transform="matrix(1,0,0,1,-45936,-18591.9)">
        <g transform="matrix(0.920556,0,0,3.27813,22273.7,15554.2)">
            <g transform="matrix(0.0823089,0,0,0.0213684,25641,906.836)">
                <g transform="matrix(0.396825,0,0,0.429239,355.628,565.227)">
                    <path d="M1418,861C1386,870 1335,889 1305,904C1237,938 1136,1042 1098,1115C1036,1238 1039,1137 1042,3141L1045,4976L1069,5036C1118,5158 1210,5253 1323,5299L1381,5323L5812,5323L5888,5287C6025,5223 6118,5099 6142,4948C6157,4857 6157,2062 6142,1968C6119,1819 6029,1699 5891,1633L5812,1595L5604,1592L5397,1588L5397,1264C5397,1079 5393,929 5387,913C5381,899 5361,877 5342,866C5308,845 5289,845 3392,845C1746,846 1467,848 1418,861ZM5145,1096L5145,1590L3310,1587L1475,1585L1426,1560C1371,1533 1320,1467 1300,1396C1269,1282 1349,1143 1468,1107C1483,1102 2317,1098 3321,1097L5145,1096ZM1386,1814L1444,1837L3607,1842C5632,1847 5772,1848 5803,1865C5850,1891 5877,1929 5890,1990C5897,2022 5901,2188 5901,2409L5901,2776L3995,2782L3953,2804C3894,2836 3829,2909 3805,2971C3787,3019 3785,3056 3785,3464L3785,3905L3810,3960C3840,4025 3898,4081 3973,4116L4027,4141L5902,4141L5899,4538L5896,4934L5870,4981C5852,5012 5828,5035 5797,5052L5751,5076L3597,5076C1530,5076 1442,5075 1402,5056C1379,5046 1351,5027 1340,5015C1291,4960 1292,5010 1292,3345C1292,1855 1292,1777 1310,1784C1320,1788 1354,1802 1386,1814ZM5901,3028L5901,3889L4983,3889C4162,3890 4063,3888 4049,3873C4034,3859 4032,3806 4032,3459C4032,3112 4034,3059 4049,3045C4063,3030 4162,3028 4983,3028L5901,3028Z" style="fill-rule:nonzero;"/>
                </g>
                <g transform="matrix(0.396825,0,0,0.429239,355.628,891.449)">
                    <path d="M4655,2457C4567,2479 4493,2556 4473,2650C4435,2819 4594,2979 4764,2941C4834,2925 4900,2876 4935,2814C4967,2755 4970,2651 4941,2594C4886,2488 4764,2429 4655,2457Z" style="fill-rule:nonzero;"/>
                </g>
            </g>
        </g>
    </g>
</svg>
