<?xml version="1.0" encoding="UTF-8" standalone="no"?>
<!DOCTYPE svg PUBLIC "-//W3C//DTD SVG 1.1//EN" "http://www.w3.org/Graphics/SVG/1.1/DTD/svg11.dtd">
<svg width="100%" height="100%" viewBox="0 0 176 146" version="1.1" xmlns="http://www.w3.org/2000/svg" xmlns:xlink="http://www.w3.org/1999/xlink" xml:space="preserve" xmlns:serif="http://www.serif.com/" style="fill-rule:evenodd;clip-rule:evenodd;stroke-linejoin:round;stroke-miterlimit:2;">
    <g transform="matrix(1,0,0,1,-44357.7,-18467.5)">
        <g transform="matrix(0.920556,0,0,3.27813,22273.7,15554.2)">
            <g transform="matrix(0.0859035,0,0,0.0223016,23931.9,868.818)">
                <g transform="matrix(0.396825,0,0,0.429239,357.143,-1200.07)">
                    <path d="M3308,4900C3092,4927 2819,5008 2621,5105C2513,5157 2495,5170 2482,5201C2469,5232 2469,5241 2483,5272C2500,5306 2536,5330 2571,5330C2581,5330 2636,5307 2694,5279C2983,5137 3293,5071 3631,5081C3929,5090 4179,5150 4451,5279C4523,5313 4590,5341 4600,5341C4673,5341 4719,5256 4678,5197C4646,5152 4435,5054 4221,4985C4013,4919 3882,4899 3623,4895C3493,4893 3351,4895 3308,4900Z" style="fill-rule:nonzero;stroke:rgb(7,28,59);stroke-width:39.08px;"/>
                </g>
                <g transform="matrix(0.396825,0,0,0.429239,357.143,-648.925)">
                    <path d="M1609,3878C1324,3955 1131,4198 1131,4477C1131,4587 1147,4660 1192,4755C1254,4885 1356,4987 1486,5049C1581,5094 1655,5111 1759,5110C2224,5107 2520,4624 2314,4205C2269,4113 2157,3994 2069,3944C1927,3865 1751,3839 1609,3878ZM1864,4063C2134,4133 2269,4429 2146,4682C2066,4846 1874,4946 1693,4918C1402,4872 1237,4569 1359,4303C1418,4173 1528,4089 1685,4054C1731,4044 1804,4047 1864,4063Z" style="fill-rule:nonzero;stroke:rgb(7,28,59);stroke-width:39.08px;"/>
                </g>
                <g transform="matrix(0.396825,0,0,0.429239,357.143,-653.647)">
                    <path d="M5303,3885C5017,3946 4809,4203 4809,4493C4810,4842 5083,5118 5429,5120C5605,5122 5744,5064 5870,4939C5997,4813 6058,4671 6058,4498C6058,4325 6001,4189 5875,4062C5716,3901 5515,3839 5303,3885ZM5538,4074C5672,4108 5771,4191 5831,4318C5862,4383 5864,4396 5864,4498C5864,4601 5862,4614 5831,4680C5769,4809 5658,4894 5511,4925C5322,4964 5131,4868 5043,4690C5004,4612 5003,4607 5003,4494C5003,4388 5006,4373 5033,4317C5129,4122 5338,4021 5538,4074Z" style="fill-rule:nonzero;stroke:rgb(7,28,59);stroke-width:39.08px;"/>
                </g>
                <g transform="matrix(0.396825,0,0,0.429239,357.143,317.721)">
                    <path d="M1381,3008C1241,3038 1084,3130 991,3237C906,3334 836,3482 823,3593C817,3643 819,3650 846,3677C867,3698 885,3705 914,3705C973,3705 994,3681 1019,3585C1064,3406 1185,3275 1366,3210C1431,3187 1446,3186 1754,3186C2062,3186 2076,3187 2145,3210C2323,3272 2446,3406 2494,3591C2516,3676 2542,3705 2596,3705C2625,3705 2644,3698 2662,3680C2693,3649 2695,3614 2671,3523C2613,3297 2433,3107 2203,3028L2116,2998L1785,2995C1522,2993 1439,2996 1381,3008Z" style="fill-rule:nonzero;stroke:rgb(7,28,59);stroke-width:39.08px;"/>
                </g>
                <g transform="matrix(0.396825,0,0,0.429239,357.143,326.735)">
                    <path d="M5090,2981C4819,3029 4596,3227 4521,3487C4493,3584 4495,3630 4529,3659C4568,3693 4623,3693 4656,3660C4671,3645 4686,3612 4693,3578C4735,3375 4918,3202 5124,3170C5162,3164 5301,3160 5434,3160C5720,3160 5786,3168 5891,3219C6034,3289 6137,3420 6174,3579C6182,3610 6198,3647 6212,3660C6255,3704 6341,3685 6363,3627C6376,3591 6347,3472 6300,3375C6249,3269 6178,3183 6090,3118C6007,3057 5961,3033 5864,3001C5795,2978 5773,2977 5465,2975C5286,2973 5117,2976 5090,2981Z" style="fill-rule:nonzero;stroke:rgb(7,28,59);stroke-width:39.08px;"/>
                </g>
                <g transform="matrix(0.396825,0,0,0.429239,357.143,1295.1)">
                    <path d="M3449,1603C3231,1656 3043,1839 2988,2054C2967,2133 2967,2288 2987,2369C3056,2639 3308,2836 3586,2838C3701,2839 3788,2818 3889,2765C3975,2719 4087,2615 4132,2538C4239,2353 4249,2132 4159,1946C4113,1852 4066,1793 3986,1727C3922,1674 3800,1615 3719,1598C3645,1582 3526,1584 3449,1603ZM3730,1797C4099,1921 4138,2427 3792,2604C3601,2701 3355,2640 3235,2464C3179,2383 3158,2304 3162,2193C3166,2083 3194,2007 3260,1927C3365,1799 3568,1742 3730,1797Z" style="fill-rule:nonzero;stroke:rgb(7,28,59);stroke-width:39.08px;"/>
                </g>
                <g transform="matrix(0.396825,0,0,0.429239,357.143,1444.04)">
                    <path d="M1473,1302C1461,1307 1442,1324 1432,1339C1416,1364 1415,1374 1427,1432C1449,1544 1531,1772 1592,1897C1713,2142 1899,2389 2090,2561C2303,2752 2371,2785 2431,2725C2462,2694 2466,2637 2439,2607C2429,2595 2380,2555 2331,2518C2213,2427 2018,2224 1930,2100C1799,1916 1685,1668 1622,1434C1608,1382 1588,1331 1578,1321C1555,1298 1504,1289 1473,1302Z" style="fill-rule:nonzero;stroke:rgb(7,28,59);stroke-width:39.08px;"/>
                </g>
                <g transform="matrix(0.396825,0,0,0.429239,357.143,1423.44)">
                    <path d="M5577,1366C5558,1382 5544,1406 5539,1431C5526,1504 5458,1701 5408,1812C5282,2094 5066,2370 4820,2563C4723,2639 4715,2648 4715,2692C4714,2735 4763,2788 4801,2789C4877,2789 5175,2515 5339,2295C5518,2054 5647,1784 5712,1515C5735,1419 5727,1379 5680,1355C5638,1333 5613,1336 5577,1366Z" style="fill-rule:nonzero;stroke:rgb(7,28,59);stroke-width:39.08px;"/>
                </g>
                <g transform="matrix(0.396825,0,0,0.429239,357.143,2258.31)">
                    <path d="M3219,744C3071,774 2903,878 2809,998C2712,1122 2639,1323 2667,1390C2682,1427 2729,1447 2777,1437C2821,1429 2839,1404 2855,1329C2887,1176 2989,1046 3138,970C3232,922 3301,915 3628,919C3910,923 3937,925 3994,947C4077,977 4146,1022 4202,1083C4266,1151 4298,1210 4331,1318C4361,1418 4382,1442 4437,1442C4455,1442 4483,1432 4498,1420C4533,1393 4535,1338 4504,1236C4464,1104 4388,991 4278,897C4202,832 4147,802 4037,763L3953,734L3623,731C3371,730 3274,733 3219,744Z" style="fill-rule:nonzero;stroke:rgb(7,28,59);stroke-width:39.08px;"/>
                </g>
            </g>
        </g>
    </g>
</svg>
