<?xml version="1.0" encoding="UTF-8" standalone="no"?>
<!DOCTYPE svg PUBLIC "-//W3C//DTD SVG 1.1//EN" "http://www.w3.org/Graphics/SVG/1.1/DTD/svg11.dtd">
<svg width="100%" height="100%" viewBox="0 0 2301 587" version="1.1" xmlns="http://www.w3.org/2000/svg" xmlns:xlink="http://www.w3.org/1999/xlink" xml:space="preserve" xmlns:serif="http://www.serif.com/" style="fill-rule:evenodd;clip-rule:evenodd;stroke-linecap:round;stroke-linejoin:round;stroke-miterlimit:1.5;">
    <g transform="matrix(1,0,0,1,-24517.6,-974.442)">
        <g transform="matrix(3.45397,0,0,-3.45397,-66712.6,12742.3)">
            <g transform="matrix(0.272799,-3.08149e-33,3.08149e-33,0.272799,19349.1,2392.7)">
                <g transform="matrix(-0.095238,1.16633e-17,-1.16633e-17,-0.095238,26508.8,3798.42)">
                    <path d="M735,2958C702,2975 693,2990 644,3113C474,3537 416,4009 477,4468C519,4782 611,5072 763,5365C1087,5994 1643,6470 2320,6700C2386,6723 2451,6741 2464,6741C2477,6741 2503,6728 2521,6712C2552,6684 2554,6677 2585,6471C2617,6261 2618,6228 2591,6192C2584,6182 2509,6148 2426,6116C2051,5972 1754,5757 1509,5450C1281,5163 1138,4847 1069,4473C1039,4310 1036,3932 1064,3780C1107,3544 1154,3395 1241,3213C1315,3059 1321,3018 1278,2974L1249,2945L1010,2942C798,2940 768,2941 735,2958ZM1048,3147C967,3330 893,3586 864,3780C839,3952 839,4293 865,4445C926,4814 1046,5127 1234,5408C1493,5795 1874,6108 2289,6274C2344,6296 2393,6318 2398,6322C2408,6330 2386,6510 2375,6510C2355,6510 2167,6434 2090,6395C1442,6070 1000,5564 776,4894C631,4458 612,3939 724,3502C749,3405 806,3230 835,3158C841,3142 857,3139 947,3139C1005,3139 1050,3143 1048,3147Z" style="fill-rule:nonzero;"/>
                </g>
                <g transform="matrix(-0.095238,1.16633e-17,-1.16633e-17,-0.095238,26508.8,3872.42)">
                    <path d="M1626,3733C1566,3766 1409,4053 1336,4263C1276,4435 1228,4718 1228,4904C1229,5025 1263,5261 1301,5397C1465,5994 1891,6474 2450,6693C2568,6738 2575,6740 2609,6726C2628,6718 2650,6701 2657,6688C2669,6665 2730,6297 2730,6242C2730,6196 2701,6170 2590,6115C2250,5944 2003,5666 1890,5326C1786,5011 1795,4703 1917,4386C1980,4222 2068,4087 2202,3947C2271,3874 2279,3862 2279,3824C2279,3794 2271,3772 2253,3752L2228,3722L1941,3720C1705,3718 1649,3720 1626,3733ZM1946,3923C1950,3927 1932,3959 1907,3994C1699,4287 1596,4660 1627,5010C1643,5191 1668,5299 1735,5469C1866,5808 2136,6106 2454,6267C2490,6285 2520,6307 2520,6315C2520,6324 2515,6366 2508,6410C2500,6465 2492,6489 2482,6489C2458,6489 2324,6418 2226,6355C1702,6016 1400,5425 1433,4804C1448,4512 1528,4245 1672,4003L1724,3916L1832,3916C1891,3916 1942,3920 1946,3923Z" style="fill-rule:nonzero;"/>
                </g>
                <g transform="matrix(-0.095238,1.16633e-17,-1.16633e-17,-0.095238,26508.8,3951.18)">
                    <path d="M3082,4555C2674,4589 2319,4828 2138,5190C2035,5397 1999,5586 2017,5821C2048,6199 2275,6550 2607,6733C2644,6753 2682,6770 2692,6770C2731,6770 2771,6739 2782,6699C2801,6634 2855,6245 2848,6226C2845,6216 2809,6174 2769,6131C2548,5896 2538,5558 2747,5332C2823,5250 2911,5191 3002,5162C3094,5133 3257,5131 3339,5158C3596,5241 3759,5461 3759,5725C3759,5889 3691,6033 3552,6167C3518,6199 3507,6218 3507,6242C3507,6287 3557,6641 3570,6688C3583,6733 3624,6770 3662,6770C3723,6770 3910,6640 4027,6516C4156,6379 4226,6262 4284,6090C4383,5793 4360,5472 4220,5191C4011,4771 3553,4515 3082,4555ZM3304,4755C3628,4799 3900,4993 4046,5286C4182,5557 4180,5887 4042,6162C3986,6273 3872,6411 3779,6480L3741,6508L3725,6401L3708,6294L3764,6231C3913,6063 3985,5809 3945,5588C3914,5417 3846,5289 3718,5163C3624,5071 3552,5026 3426,4982C3347,4954 3315,4949 3201,4945C3081,4941 3058,4943 2972,4968C2850,5003 2794,5032 2695,5111C2559,5218 2480,5336 2430,5505C2362,5735 2415,6009 2564,6192C2655,6305 2648,6286 2634,6389C2628,6440 2619,6487 2615,6495C2605,6513 2466,6384 2398,6294C2332,6207 2263,6060 2235,5945C2204,5823 2202,5628 2230,5506C2282,5278 2413,5078 2598,4940C2748,4829 2867,4782 3077,4750C3131,4742 3225,4744 3304,4755Z" style="fill-rule:nonzero;"/>
                </g>
                <g transform="matrix(-0.095238,1.16633e-17,-1.16633e-17,-0.095238,26508.8,3872.23)">
                    <path d="M4148,3725C4095,3738 4064,3790 4078,3844C4081,3857 4118,3906 4160,3952C4342,4149 4437,4324 4502,4576C4528,4677 4530,4703 4530,4886C4530,5066 4527,5096 4502,5196C4434,5469 4308,5688 4114,5873C4000,5982 3900,6050 3756,6119C3624,6182 3614,6197 3631,6300C3637,6337 3648,6404 3654,6450C3673,6584 3695,6689 3707,6703C3714,6711 3734,6722 3754,6728C3785,6739 3801,6735 3908,6691C4326,6520 4680,6202 4890,5812C4992,5622 5074,5377 5104,5174C5147,4880 5113,4519 5016,4250C4943,4049 4794,3775 4736,3737C4714,3723 4669,3720 4447,3718C4303,3717 4168,3720 4148,3725ZM4684,3998C4773,4143 4858,4369 4900,4571C4930,4717 4927,5076 4895,5227C4822,5565 4673,5852 4448,6086C4286,6254 4121,6377 3953,6455C3864,6496 3854,6496 3853,6453C3853,6434 3848,6398 3842,6373C3837,6348 3835,6319 3838,6310C3842,6300 3882,6274 3929,6251C4099,6166 4287,6001 4431,5810C4565,5632 4649,5446 4699,5216C4725,5099 4728,5064 4728,4880C4729,4709 4725,4659 4706,4573C4655,4342 4561,4130 4440,3976C4423,3955 4410,3932 4410,3926C4410,3917 4444,3915 4522,3917L4635,3920L4684,3998Z" style="fill-rule:nonzero;"/>
                </g>
                <g transform="matrix(-0.095238,1.16633e-17,-1.16633e-17,-0.095238,26508.8,3795.37)">
                    <path d="M5106,2923C5037,2954 5034,3011 5093,3129C5327,3594 5380,4151 5239,4654C5183,4853 5106,5029 5000,5202C4745,5618 4334,5947 3870,6107C3731,6154 3730,6157 3770,6423C3816,6736 3821,6740 4050,6663C4303,6577 4591,6426 4793,6274C5216,5957 5532,5545 5718,5065C5901,4592 5950,4053 5854,3555C5808,3318 5698,2996 5643,2939L5617,2913L5378,2911C5191,2909 5133,2911 5106,2923ZM5546,3191C5652,3468 5703,3752 5703,4079C5703,4499 5619,4848 5429,5223C5225,5626 4940,5945 4565,6192C4362,6326 3997,6496 3979,6466C3974,6459 3968,6427 3964,6395C3960,6363 3955,6326 3952,6314C3947,6295 3957,6288 4034,6257C4661,6009 5157,5500 5376,4877C5475,4598 5513,4371 5512,4066C5512,3765 5457,3486 5341,3199L5304,3107L5410,3110L5515,3113L5546,3191Z" style="fill-rule:nonzero;"/>
                </g>
            </g>
            <g transform="matrix(8.05017e-17,1.31469,-1.31469,8.05017e-17,31115.6,-31405.8)">
                <circle cx="26415.2" cy="3512.25" r="62.246" style="fill:none;stroke:black;stroke-width:4.75px;"/>
            </g>
        </g>
        <g transform="matrix(0.583527,0,0,0.583527,24641.1,452.565)">
            <text x="967px" y="1535px" style="font-family:'NHaasGroteskTXPro-75Bd', 'Neue Haas Grotesk Text Pro', sans-serif;font-weight:700;font-size:154.936px;">E<tspan x="1067.4px 1167.8px 1280.44px 1369.06px 1477.83px 1581.32px 1624.09px 1727.58px 1827.98px " y="1535px 1535px 1535px 1535px 1535px 1535px 1535px 1535px 1535px ">XCLUSIVES</tspan></text>
            <text x="967px" y="1687.87px" style="font-family:'NHaasGroteskTXPro-75Bd', 'Neue Haas Grotesk Text Pro', sans-serif;font-weight:700;font-size:154.936px;">F<tspan x="1062.75px 1170.12px 1290.51px 1424.06px 1457.99px 1558.08px 1670.41px " y="1687.87px 1687.87px 1687.87px 1687.87px 1687.87px 1687.87px 1687.87px ">ROM THE</tspan></text>
            <text x="967px" y="1840.74px" style="font-family:'NHaasGroteskTXPro-75Bd', 'Neue Haas Grotesk Text Pro', sans-serif;font-weight:700;font-size:154.936px;">U<tspan x="1075.77px 1189.02px 1301.51px 1401.91px 1509.28px 1627.34px 1734.71px 1855.1px 1963.86px 2077.12px " y="1840.74px 1840.74px 1840.74px 1840.74px 1840.74px 1840.74px 1840.74px 1840.74px 1840.74px 1840.74px ">NDERGROUND</tspan></text>
        </g>
        <g transform="matrix(2.54782,0,0,2.54782,22725,-2682.24)">
            <text x="967px" y="1535px" style="font-family:'NHaasGroteskTXPro-75Bd', 'Neue Haas Grotesk Text Pro', sans-serif;font-weight:700;font-size:117.268px;">O<tspan x="1054.48px 1133.17px 1205.29px 1282.33px 1364.54px 1444.63px 1522.26px " y="1535px 1535px 1535px 1535px 1535px 1535px 1535px ">UTBOARD</tspan></text>
        </g>
    </g>
</svg>
