<?xml version="1.0" encoding="UTF-8" standalone="no"?>
<!DOCTYPE svg PUBLIC "-//W3C//DTD SVG 1.1//EN" "http://www.w3.org/Graphics/SVG/1.1/DTD/svg11.dtd">
<svg width="100%" height="100%" viewBox="0 0 240 194" version="1.1" xmlns="http://www.w3.org/2000/svg" xmlns:xlink="http://www.w3.org/1999/xlink" xml:space="preserve" xmlns:serif="http://www.serif.com/" style="fill-rule:evenodd;clip-rule:evenodd;stroke-linejoin:round;stroke-miterlimit:2;">
    <g transform="matrix(1,0,0,1,-45299.8,-14680.3)">
        <g transform="matrix(0.920556,0,0,1.34219,22273.7,13952.1)">
            <g transform="matrix(0.147386,0,0,0.101086,22276.6,200.251)">
                <g transform="matrix(0.396825,0,0,0.396825,18231.1,2661.64)">
                    <path d="M3785,1840C3745,1849 3694,1853 3673,1849C3642,1844 3533,1874 3130,1996L2626,2149L2039,2149C1550,2149 1450,2151 1433,2164C1414,2177 1412,2196 1407,2350L1402,2521L1310,2548C1258,2563 1208,2585 1195,2598C1173,2620 1172,2625 1183,2676C1190,2707 1198,2739 1202,2749C1208,2763 1189,2767 1058,2779C888,2794 865,2800 850,2834C837,2862 1083,5358 1102,5393C1108,5405 1122,5419 1133,5424C1147,5432 1515,5398 2401,5309C3087,5240 3654,5184 3661,5184C3668,5184 3687,5172 3703,5159L3731,5134L3715,4972C3706,4884 3701,4807 3704,4803C3706,4799 3776,4795 3859,4795C4059,4795 4053,4801 4053,4619L4053,4485L4229,4433C4343,4399 4412,4373 4426,4358C4437,4346 4493,4315 4550,4288C4695,4219 4788,4155 4907,4039C5098,3855 5220,3633 5278,3365C5304,3242 5304,2985 5277,2863C5223,2612 5114,2405 4943,2226C4747,2021 4500,1887 4227,1840C4112,1820 3886,1820 3785,1840ZM4203,1986C4565,2049 4864,2274 5029,2606C5193,2935 5195,3285 5035,3614C4939,3812 4809,3960 4627,4078C4539,4136 4420,4190 4410,4179C4406,4174 4361,4033 4311,3866C4248,3659 4223,3561 4232,3558C4238,3555 4273,3532 4308,3505C4564,3310 4563,2920 4308,2725C4223,2660 4144,2632 4027,2623L3932,2616L3840,2312C3790,2145 3752,2005 3756,2000C3786,1971 4066,1962 4203,1986ZM3936,3137C4123,3755 4274,4262 4272,4264C4263,4271 2026,4945 2023,4941C2009,4925 1345,2701 1351,2694C1360,2686 3565,2014 3586,2013C3592,2013 3749,2519 3936,3137ZM2120,2300C2117,2303 1809,2397 1583,2464L1554,2473L1554,2296L1839,2296C1996,2296 2123,2298 2120,2300ZM4149,2799C4226,2835 4280,2889 4317,2964C4346,3024 4351,3044 4351,3115C4351,3186 4346,3206 4317,3266C4285,3331 4212,3409 4184,3409C4178,3409 4131,3271 4080,3102C4029,2933 3984,2788 3981,2780C3973,2758 4089,2771 4149,2799ZM1332,3173L1407,3425L1407,4089C1407,4739 1407,4753 1428,4774C1447,4793 1463,4795 1636,4795L1823,4795L1863,4929C1905,5068 1929,5110 1970,5110C1984,5110 2228,5039 2514,4953L3033,4795L3547,4795L3553,4840C3556,4864 3562,4920 3566,4963L3572,5042L2404,5160C1761,5224 1234,5276 1233,5275C1227,5269 998,2943 1002,2939C1011,2930 1243,2908 1250,2915C1254,2918 1290,3034 1332,3173ZM1669,4288C1727,4479 1775,4639 1775,4642C1775,4645 1725,4648 1664,4648L1554,4648L1555,4283C1555,4082 1558,3923 1560,3929C1562,3935 1611,4096 1669,4288ZM3906,4590L3906,4648L3720,4647C3617,4647 3539,4644 3547,4641C3568,4632 3889,4534 3898,4533C3902,4533 3906,4558 3906,4590Z" style="fill-rule:nonzero;"/>
                </g>
                <g transform="matrix(0.396825,0,0,0.396825,18231.1,2557.67)">
                    <path d="M2686,3261C2605,3287 2531,3335 2468,3404C2291,3599 2299,3893 2488,4081C2682,4276 2986,4276 3182,4081C3493,3769 3273,3238 2833,3241C2779,3241 2723,3249 2686,3261ZM2955,3409C3031,3438 3110,3510 3147,3585C3172,3636 3176,3657 3176,3734C3176,3836 3155,3891 3088,3966L3048,4011L3010,3942C2935,3808 2883,3647 2871,3515C2868,3477 2864,3432 2861,3416C2855,3380 2874,3379 2955,3409ZM2730,3571C2745,3689 2800,3860 2861,3975C2913,4073 2911,4080 2840,4080C2706,4081 2573,3995 2516,3871C2482,3797 2485,3664 2521,3587C2553,3521 2609,3459 2665,3430L2704,3410L2711,3444C2714,3462 2723,3519 2730,3571Z" style="fill-rule:nonzero;"/>
                </g>
            </g>
        </g>
    </g>
</svg>
