<?xml version="1.0" encoding="UTF-8" standalone="no"?>
<!DOCTYPE svg PUBLIC "-//W3C//DTD SVG 1.1//EN" "http://www.w3.org/Graphics/SVG/1.1/DTD/svg11.dtd">
<svg width="100%" height="100%" viewBox="0 0 217 225" version="1.1" xmlns="http://www.w3.org/2000/svg" xmlns:xlink="http://www.w3.org/1999/xlink" xml:space="preserve" xmlns:serif="http://www.serif.com/" style="fill-rule:evenodd;clip-rule:evenodd;stroke-linejoin:round;stroke-miterlimit:2;">
    <g transform="matrix(1,0,0,1,-46342.8,-14679.6)">
        <g transform="matrix(0.920556,0,0,1.34219,22273.7,13952.1)">
            <g transform="matrix(0.451423,0,0,0.309614,16955,-290.968)">
                <g transform="matrix(0.218355,0,0,0.218355,16347.8,1897.25)">
                    <g>
                        <g transform="matrix(0.396825,0,0,0.396825,18205.8,4986.77)">
                            <path d="M3236,665C2820,741 2485,1052 2377,1463C2354,1550 2349,1591 2349,1709C2348,1864 2360,1944 2401,2071C2514,2419 2802,2690 3156,2780C3338,2827 3471,2830 3655,2790C4038,2709 4347,2425 4466,2047C4580,1687 4478,1258 4212,981C3964,723 3587,601 3236,665ZM3650,822C3994,909 4250,1162 4337,1500C4468,2012 4152,2528 3632,2649C3519,2675 3338,2673 3220,2645C2825,2550 2540,2224 2498,1822C2460,1447 2648,1091 2983,907C3180,799 3432,766 3650,822Z" style="fill-rule:nonzero;"/>
                        </g>
                        <g transform="matrix(0.396825,0,0,0.396825,18205.8,2113.36)">
                            <path d="M3176,3848C2856,3904 2580,4047 2352,4277C2079,4552 1939,4862 1910,5254C1897,5430 1907,5554 1949,5726C2044,6118 2333,6495 2681,6683C2911,6807 3114,6864 3372,6878C3656,6893 4001,6798 4257,6635C4512,6472 4727,6209 4840,5922C4924,5709 4969,5403 4946,5199C4905,4840 4759,4532 4510,4282C4446,4218 4368,4147 4337,4124C4002,3881 3575,3779 3176,3848ZM3638,3988C3814,4015 3926,4052 4083,4137C4169,4183 4346,4307 4347,4321C4347,4335 4209,4456 4162,4484C4121,4508 4111,4510 4103,4497C4098,4489 4070,4440 4041,4388C3970,4261 3886,4152 3855,4144C3793,4129 3740,4185 3768,4238C3775,4251 3806,4295 3837,4335C3868,4375 3913,4445 3937,4490L3981,4571L3951,4583C3868,4615 3634,4655 3536,4655L3497,4655L3497,4417C3497,4211 3494,4177 3479,4160C3456,4135 3407,4136 3381,4162C3361,4182 3360,4197 3360,4418L3360,4654L3294,4648C3174,4639 3072,4624 2992,4602C2879,4572 2881,4574 2914,4507C2944,4448 3004,4357 3063,4279C3105,4224 3109,4180 3072,4156C3026,4126 2993,4140 2933,4214C2903,4252 2849,4334 2813,4396L2748,4508L2708,4486C2652,4454 2544,4365 2530,4340C2516,4313 2519,4309 2591,4254C2739,4143 2926,4051 3082,4014C3255,3973 3473,3962 3638,3988ZM2552,4553C2577,4573 2621,4602 2648,4618L2697,4646L2682,4690C2606,4906 2562,5281 2583,5542C2596,5699 2623,5847 2662,5976C2680,6033 2686,6068 2679,6071C2646,6082 2528,6168 2472,6222L2406,6284L2351,6218C2050,5856 1965,5350 2130,4886C2181,4742 2275,4577 2369,4468L2407,4423L2456,4469C2482,4495 2526,4532 2552,4553ZM4521,4511C4655,4693 4716,4820 4766,5018C4812,5201 4815,5452 4773,5642C4727,5854 4613,6086 4483,6234L4438,6285L4413,6253C4387,6220 4248,6112 4192,6082L4160,6064L4186,5982C4246,5792 4275,5595 4275,5357C4275,5126 4255,4971 4198,4763C4180,4697 4168,4643 4170,4642C4237,4602 4364,4509 4399,4472C4425,4446 4448,4425 4452,4425C4455,4425 4486,4464 4521,4511ZM2959,4743C3013,4758 3106,4775 3164,4781C3223,4788 3291,4795 3315,4798L3360,4804L3360,5903L3289,5910C3166,5921 3012,5948 2922,5974C2874,5988 2830,5999 2825,5999C2819,5999 2805,5969 2794,5932C2703,5637 2696,5200 2776,4871C2811,4727 2821,4704 2843,4711C2853,4714 2905,4728 2959,4743ZM4063,4789C4106,4931 4127,5081 4133,5285C4141,5545 4120,5716 4051,5938L4030,6007L3970,5988C3871,5958 3708,5926 3602,5918L3502,5910L3499,5360C3497,4926 3499,4807 3510,4801C3517,4796 3546,4792 3574,4792C3653,4792 3833,4763 3924,4735C4043,4699 4036,4697 4063,4789ZM3386,6520C3414,6541 3451,6539 3476,6514C3495,6494 3497,6479 3497,6272L3497,6052L3531,6052C3643,6052 3969,6117 3969,6139C3969,6156 3901,6272 3839,6361C3806,6408 3780,6454 3780,6464C3780,6492 3827,6535 3858,6535C3878,6535 3896,6519 3934,6467C3982,6402 4088,6234 4098,6207C4106,6185 4194,6238 4272,6310C4341,6375 4342,6375 4322,6397C4289,6434 4122,6544 4033,6588C3931,6638 3748,6699 3649,6716C3554,6732 3293,6731 3192,6715C2983,6681 2701,6551 2548,6417L2507,6382L2553,6335C2600,6286 2720,6199 2740,6199C2746,6199 2766,6229 2784,6265C2827,6350 2891,6446 2938,6496C2984,6544 3023,6548 3055,6507C3082,6472 3077,6453 3020,6377C2937,6269 2871,6153 2882,6136C2897,6113 3117,6064 3255,6054L3355,6047L3360,6276C3365,6487 3367,6506 3386,6520Z" style="fill-rule:nonzero;"/>
                        </g>
                        <g transform="matrix(0.396825,0,0,0.396825,18205.8,3416.93)">
                            <path d="M5498,2054C5471,2075 5463,2106 5477,2141C5480,2150 5524,2187 5574,2224C5806,2397 6016,2672 6132,2953C6238,3211 6275,3416 6265,3704C6257,3970 6207,4170 6090,4400C5918,4740 5679,4988 5336,5182C5282,5213 5231,5248 5223,5261C5198,5299 5232,5360 5278,5360C5320,5361 5508,5250 5656,5139C6035,4854 6310,4399 6395,3917C6415,3809 6417,3763 6413,3596C6407,3386 6391,3279 6341,3105C6280,2891 6173,2675 6035,2488C5965,2393 5725,2154 5639,2093C5550,2031 5533,2026 5498,2054Z" style="fill-rule:nonzero;stroke:rgb(7,28,59);stroke-width:42.17px;"/>
                        </g>
                        <g transform="matrix(0.396825,0,0,0.396825,18205.8,2390.74)">
                            <path d="M1019,4667C826,4680 777,4686 756,4701C722,4725 717,4768 745,4796C770,4821 842,4823 1081,4807C1159,4802 1224,4799 1226,4801C1228,4803 1236,4909 1243,5036C1254,5236 1259,5271 1275,5290C1303,5320 1348,5317 1375,5282C1394,5258 1397,5245 1392,5196C1389,5164 1381,5039 1374,4919C1360,4676 1356,4662 1292,4655C1271,4653 1148,4658 1019,4667Z" style="fill-rule:nonzero;stroke:rgb(7,28,59);stroke-width:42.17px;"/>
                        </g>
                        <g transform="matrix(0.396825,0,0,0.396825,18205.8,3627.64)">
                            <path d="M904,1921C678,2183 523,2531 466,2903C447,3026 448,3318 467,3433C506,3673 578,3881 693,4089C880,4426 1250,4759 1605,4908C1734,4963 1922,5020 1976,5022C2030,5024 2052,5010 2063,4966C2074,4922 2038,4888 1967,4872C1598,4790 1193,4529 952,4217C690,3880 559,3443 597,3037C634,2640 765,2311 995,2032C1072,1939 1082,1901 1040,1867C997,1832 972,1842 904,1921Z" style="fill-rule:nonzero;stroke:rgb(7,28,59);stroke-width:42.17px;"/>
                        </g>
                        <g transform="matrix(0.396825,0,0,0.396825,18205.8,4684.79)">
                            <path d="M5010,1730C4990,1756 4820,2247 4820,2280C4820,2290 4825,2306 4833,2315C4846,2332 5334,2512 5367,2512C5391,2512 5429,2463 5429,2433C5429,2386 5395,2367 5189,2293C5078,2253 4984,2218 4982,2216C4980,2214 5011,2120 5051,2008C5091,1895 5124,1789 5124,1771C5124,1706 5050,1680 5010,1730Z" style="fill-rule:nonzero;stroke:rgb(7,28,59);stroke-width:42.17px;"/>
                        </g>
                    </g>
                    <g transform="matrix(3.2311,-0.0464156,-1.64628e-33,3.2311,16284.4,939.878)">
                        <text x="967px" y="1535px" style="font-family:'NHaasGroteskTXPro-75Bd', 'Neue Haas Grotesk Text Pro', sans-serif;font-weight:700;font-size:154.936px;">£</text>
                    </g>
                </g>
                <g transform="matrix(1,0,0,1,87.1602,-5.75544)">
                    <path d="M20427,2828.86L20639,2828.86" style="fill:none;stroke:rgb(7,28,59);stroke-width:10.42px;stroke-linecap:round;stroke-miterlimit:1.5;"/>
                </g>
            </g>
        </g>
    </g>
</svg>
