<?xml version="1.0" encoding="UTF-8" standalone="no"?>
<!DOCTYPE svg PUBLIC "-//W3C//DTD SVG 1.1//EN" "http://www.w3.org/Graphics/SVG/1.1/DTD/svg11.dtd">
<svg width="100%" height="100%" viewBox="0 0 190 214" version="1.1" xmlns="http://www.w3.org/2000/svg" xmlns:xlink="http://www.w3.org/1999/xlink" xml:space="preserve" xmlns:serif="http://www.serif.com/" style="fill-rule:evenodd;clip-rule:evenodd;stroke-linejoin:round;stroke-miterlimit:2;">
    <g transform="matrix(1,0,0,1,-45830.1,-14679.7)">
        <g transform="matrix(0.920556,0,0,1.34219,22273.7,13952.1)">
            <g transform="matrix(0.101905,0,0,0.0698925,23818.1,542.065)">
                <g>
                    <g transform="matrix(0.396825,0,0,0.396825,16928.4,-223.586)">
                        <path d="M3564,575C3507,593 3433,645 3392,694C3337,761 3315,820 3309,921L3302,1014L2567,1439C2163,1673 1817,1871 1799,1880C1768,1896 1764,1896 1736,1876C1720,1864 1677,1844 1641,1831C1587,1812 1560,1808 1494,1812C1220,1829 1058,2113 1183,2359C1216,2425 1289,2495 1349,2520L1396,2540L1396,3433L1397,4326L1349,4349C1282,4382 1212,4449 1182,4512C1084,4712 1161,4931 1363,5026C1424,5056 1444,5060 1517,5059C1602,5058 1663,5039 1743,4986C1770,4968 1773,4970 2536,5410L3302,5853L3308,5944C3316,6058 3340,6117 3412,6192C3489,6273 3570,6308 3681,6309C3758,6309 3773,6306 3845,6270C3980,6203 4057,6082 4057,5935L4057,5855L4819,5416C5238,5175 5584,4976 5588,4974C5592,4971 5614,4982 5636,4996C5699,5038 5764,5057 5849,5058C6191,5062 6353,4644 6099,4409C6065,4378 6021,4347 6001,4339L5964,4326L5964,2544L5998,2530C6148,2467 6246,2289 6219,2129C6197,2004 6120,1900 6008,1845C5898,1791 5743,1801 5644,1868C5623,1883 5602,1894 5596,1894C5591,1894 5243,1696 4823,1453L4059,1012L4057,936C4054,824 4022,749 3947,673C3866,593 3810,568 3696,564C3641,562 3590,566 3564,575ZM3797,706C3981,800 3981,1065 3797,1162C3730,1197 3622,1194 3556,1156C3459,1098 3405,979 3432,877C3457,783 3529,707 3614,686C3666,673 3751,682 3797,706ZM3441,1222C3484,1260 3581,1306 3618,1306C3631,1306 3633,1362 3633,1704L3633,2102L3567,2109C3402,2126 3227,2176 3092,2243C2921,2328 2739,2480 2624,2632C2588,2680 2554,2718 2547,2718C2541,2718 2385,2631 2202,2525L1868,2332L1876,2300C1885,2264 1887,2114 1879,2075C1875,2054 1946,2011 2630,1616C3046,1376 3388,1180 3390,1180C3392,1180 3415,1199 3441,1222ZM4732,1615C5409,2006 5486,2053 5484,2074C5470,2196 5470,2240 5484,2283L5499,2331L5163,2524C4979,2631 4822,2718 4815,2718C4807,2718 4773,2680 4737,2633C4513,2336 4177,2148 3798,2110L3728,2102L3728,1704C3728,1362 3730,1306 3743,1306C3780,1306 3877,1260 3918,1222C3943,1199 3967,1181 3971,1180C3974,1180 4317,1376 4732,1615ZM1637,1957C1691,1984 1740,2045 1759,2109C1778,2174 1778,2192 1758,2260C1691,2485 1380,2500 1282,2282C1223,2153 1294,1992 1435,1940C1487,1921 1582,1929 1637,1957ZM5960,1955C6050,2002 6101,2083 6101,2183C6101,2327 5993,2434 5849,2434C5703,2434 5594,2329 5594,2186C5594,2073 5661,1979 5770,1938C5814,1921 5911,1930 5960,1955ZM3903,2219C4038,2245 4119,2273 4253,2342C4533,2485 4756,2748 4855,3050C4939,3310 4933,3616 4838,3868C4725,4167 4495,4416 4205,4552C4110,4596 3986,4636 3880,4655C3800,4669 3560,4669 3480,4655C2970,4562 2580,4189 2472,3687C2449,3580 2441,3362 2456,3262C2540,2723 2940,2312 3475,2215C3594,2193 3781,2195 3903,2219ZM5643,2498C5668,2512 5710,2532 5737,2541L5786,2558L5780,4310L5726,4329C5668,4348 5605,4390 5569,4432L5547,4458L5204,4260C4957,4117 4863,4058 4866,4046C4869,4038 4889,3986 4912,3931C4974,3779 5000,3657 5006,3483C5013,3264 4977,3074 4892,2884C4875,2846 4865,2811 4869,2806C4874,2802 5028,2711 5212,2604L5546,2410L5573,2441C5587,2458 5619,2484 5643,2498ZM2169,2615L2508,2810L2484,2859C2319,3187 2312,3638 2467,3969C2496,4031 2504,4059 2496,4065C2489,4069 2335,4159 2153,4264L1822,4454L1777,4412C1731,4370 1637,4320 1604,4320C1587,4320 1586,4271 1586,3439L1586,2558L1648,2536C1686,2522 1730,2494 1761,2466C1789,2441 1815,2420 1820,2419C1825,2419 1982,2507 2169,2615ZM2607,4212C2661,4291 2788,4421 2880,4491C3065,4634 3286,4723 3531,4753L3633,4765L3633,5569L3609,5569C3574,5569 3464,5625 3427,5662L3395,5694L2635,5254C1883,4820 1874,4814 1879,4785C1887,4739 1885,4602 1876,4566L1868,4535L2207,4339C2394,4231 2549,4142 2552,4142C2556,4141 2580,4173 2607,4212ZM5156,4337C5332,4439 5481,4526 5487,4531C5496,4537 5495,4555 5484,4595C5471,4644 5471,4695 5484,4796C5486,4813 5346,4898 4730,5254L3974,5692L3948,5669C3897,5624 3851,5597 3792,5579L3733,5561L3727,4763L3814,4756C4042,4736 4299,4632 4495,4481C4586,4412 4701,4292 4757,4210C4789,4163 4809,4143 4820,4147C4828,4150 4979,4236 5156,4337ZM1642,4466C1707,4502 1750,4561 1766,4637C1805,4823 1624,4982 1434,4926C1407,4918 1371,4894 1338,4861C1128,4651 1381,4322 1642,4466ZM5956,4453C6009,4474 6073,4549 6090,4608C6135,4771 6032,4923 5867,4936C5714,4948 5595,4839 5594,4687C5593,4497 5773,4381 5956,4453ZM3775,5697C3894,5741 3962,5879 3926,6007C3908,6072 3825,6157 3763,6176C3573,6232 3392,6073 3432,5885C3465,5727 3621,5642 3775,5697Z" style="fill-rule:nonzero;"/>
                    </g>
                    <g transform="matrix(0.396825,0,0,0.396825,16928.4,-619.22)">
                        <path d="M3568,3524C3501,3544 3407,3602 3363,3652C3344,3675 3312,3725 3294,3762C3263,3825 3260,3838 3260,3936C3260,4037 3262,4045 3300,4122C3346,4215 3417,4286 3507,4328C3558,4353 3578,4356 3680,4356C3790,4356 3800,4354 3865,4322C3950,4280 4033,4195 4071,4112C4111,4026 4117,3899 4085,3805C4026,3630 3881,3521 3702,3514C3654,3512 3596,3517 3568,3524ZM3825,3637C3887,3666 3949,3727 3981,3792C4002,3833 4006,3857 4006,3941C4005,4056 3988,4100 3915,4173C3790,4298 3577,4300 3452,4177C3376,4103 3355,4049 3355,3936C3355,3854 3359,3834 3383,3788C3411,3735 3472,3671 3519,3646C3606,3599 3737,3595 3825,3637Z" style="fill-rule:nonzero;stroke:rgb(7,28,59);stroke-width:24.87px;"/>
                    </g>
                    <g transform="matrix(0.396825,0,0,0.396825,16928.4,70.0648)">
                        <path d="M3476,2714C3444,2722 3378,2749 3329,2773C3257,2808 3222,2834 3150,2907C3017,3040 2957,3176 2949,3359L2945,3438L4415,3438L4412,3351C4403,3052 4180,2787 3875,2712C3797,2693 3551,2694 3476,2714ZM3912,2822C4134,2899 4279,3073 4320,3314L4325,3348L3042,3348L3048,3298C3062,3178 3147,3021 3242,2939C3304,2887 3413,2829 3487,2809C3523,2799 3597,2793 3686,2793C3814,2792 3835,2795 3912,2822Z" style="fill-rule:nonzero;stroke:rgb(7,28,59);stroke-width:24.87px;"/>
                    </g>
                </g>
            </g>
        </g>
    </g>
</svg>
