<?xml version="1.0" encoding="UTF-8" standalone="no"?>
<!DOCTYPE svg PUBLIC "-//W3C//DTD SVG 1.1//EN" "http://www.w3.org/Graphics/SVG/1.1/DTD/svg11.dtd">
<svg width="100%" height="100%" viewBox="0 0 189 189" version="1.1" xmlns="http://www.w3.org/2000/svg" xmlns:xlink="http://www.w3.org/1999/xlink" xml:space="preserve" xmlns:serif="http://www.serif.com/" style="fill-rule:evenodd;clip-rule:evenodd;stroke-linejoin:round;stroke-miterlimit:2;">
    <g transform="matrix(1,0,0,1,-44821.5,-14680.2)">
        <g transform="matrix(0.920556,0,0,1.34219,22273.7,13952.1)">
            <g transform="matrix(0.0373821,0,0,0.025639,24466.5,526.246)">
                <path d="M2945,639C2906,652 2878,679 2861,718C2848,750 2846,845 2846,1380L2846,2005L2511,2008C2193,2011 2174,2012 2152,2032C2129,2053 1759,2487 1090,3279C831,3586 744,3696 735,3727C728,3756 725,4126 727,4901C730,6140 726,6054 789,6099C812,6115 1015,6117 3460,6119C5964,6122 6108,6121 6142,6104C6161,6094 6186,6069 6197,6049C6215,6014 6216,5958 6216,4875C6216,3934 6214,3732 6202,3704C6194,3685 5984,3431 5735,3138C5486,2845 5174,2476 5041,2318C4908,2160 4787,2025 4772,2018C4753,2010 4646,2006 4420,2006L4095,2006L4095,1375C4095,810 4093,740 4078,707C4042,633 4065,636 3486,634C3200,633 2957,635 2945,639ZM3843,1753C3843,2231 3846,2638 3850,2656C3853,2675 3870,2704 3887,2720C3917,2751 3918,2751 4062,2754L4207,2757L3844,3212C3644,3462 3478,3668 3475,3669C3471,3669 3304,3465 3104,3213L2739,2757L2885,2751C2990,2748 3036,2742 3049,2731C3099,2690 3098,2713 3098,1770L3098,882L3843,882L3843,1753ZM2846,2258L2846,2499L2664,2500C2465,2500 2421,2507 2383,2548C2362,2569 2357,2586 2357,2630L2357,2685L2875,3331C3160,3687 3405,3983 3419,3989C3454,4005 3492,4004 3527,3986C3561,3968 4554,2737 4580,2679C4613,2608 4574,2532 4495,2510C4474,2504 4376,2500 4276,2500L4095,2499L4095,2258L4657,2258L5809,3618L5028,3623C4465,3627 4241,3632 4226,3640C4178,3668 4167,3693 4153,3803C4146,3863 4131,3935 4121,3964C4057,4151 3929,4293 3754,4374C3659,4418 3592,4432 3472,4431C3273,4431 3132,4373 2992,4232C2924,4165 2893,4124 2864,4064C2822,3979 2793,3874 2793,3807C2793,3742 2775,3693 2740,3659L2708,3628L1134,3618L2284,2258L2846,2258ZM2566,3956C2649,4314 2931,4593 3287,4668C3383,4688 3560,4688 3660,4667C3902,4617 4121,4464 4258,4249C4312,4163 4345,4085 4373,3975L4397,3880L5181,3878L5964,3875L5964,5870L977,5870L977,3875L2547,3875L2566,3956Z" style="fill-rule:nonzero;"/>
            </g>
        </g>
    </g>
</svg>
